<svg width="66" height="66" viewBox="0 0 66 66" fill="none" xmlns="http://www.w3.org/2000/svg">
<path d="M32.9459 56.7837C32.9459 56.861 32.9347 56.9273 32.9347 56.9935V57.4899L32.957 56.4965C32.957 56.5188 32.9459 56.5955 32.9459 56.6951V56.7837ZM25.1994 2.92578C21.8671 2.92578 19.0135 5.24237 18.2923 8.41727C19.902 8.60152 21.4265 9.32213 22.5628 10.4578C22.6858 10.5808 22.7549 10.7475 22.7549 10.9214C22.7549 11.0953 22.6858 11.262 22.5628 11.385C22.4399 11.5079 22.2731 11.577 22.0993 11.577C21.9254 11.577 21.7586 11.5079 21.6357 11.385C20.5616 10.3116 19.0594 9.68998 17.5153 9.67883C15.9481 9.67621 14.4591 10.2749 13.3489 11.385C12.6837 12.0518 12.1886 12.8689 11.9055 13.7672C11.6224 14.6656 11.5595 15.6189 11.7222 16.5466C11.9272 17.732 12.4957 18.8243 13.3489 19.6724C15.6334 21.9568 19.3512 21.9562 21.6363 19.6724C21.6972 19.6115 21.7695 19.5632 21.849 19.5302C21.9286 19.4973 22.0138 19.4803 22.0999 19.4803C22.186 19.4803 22.2713 19.4973 22.3508 19.5302C22.4304 19.5632 22.5026 19.6115 22.5635 19.6724C22.6244 19.7332 22.6727 19.8055 22.7056 19.885C22.7386 19.9646 22.7555 20.0498 22.7555 20.1359C22.7555 20.222 22.7386 20.3073 22.7056 20.3868C22.6727 20.4664 22.6244 20.5386 22.5635 20.5995C21.1656 21.9975 19.3289 22.6964 17.493 22.6964C15.657 22.6964 13.8197 21.9975 12.4224 20.5995C11.5311 19.7119 10.8912 18.6037 10.5681 17.3879C7.82533 17.8875 5.7507 20.3163 5.7507 23.1489C5.7507 24.2032 6.02806 25.2242 6.55196 26.1008C7.52437 27.7788 9.27705 28.8469 11.1956 28.9866C11.4119 27.6692 12.0359 26.4529 12.9798 25.5087C13.0407 25.4479 13.1129 25.3996 13.1925 25.3666C13.272 25.3337 13.3573 25.3167 13.4434 25.3167C13.5295 25.3167 13.6147 25.3337 13.6943 25.3666C13.7738 25.3996 13.8461 25.4479 13.9069 25.5087C13.9678 25.5696 14.0161 25.6419 14.0491 25.7214C14.082 25.801 14.099 25.8862 14.099 25.9723C14.099 26.0584 14.082 26.1437 14.0491 26.2232C14.0161 26.3028 13.9678 26.375 13.9069 26.4359C11.9143 28.4286 11.9143 31.6717 13.9069 33.665C15.8996 35.6583 19.1421 35.657 21.136 33.665C21.1969 33.6041 21.2692 33.5558 21.3487 33.5229C21.4283 33.4899 21.5135 33.473 21.5996 33.473C21.6857 33.473 21.771 33.4899 21.8505 33.5229C21.9301 33.5558 22.0023 33.6041 22.0632 33.665C22.1241 33.7259 22.1724 33.7981 22.2053 33.8777C22.2383 33.9572 22.2552 34.0425 22.2552 34.1286C22.2552 34.2147 22.2383 34.2999 22.2053 34.3795C22.1724 34.459 22.1241 34.5313 22.0632 34.5922C20.8115 35.8445 19.1663 36.4701 17.5212 36.4701C15.876 36.4701 14.2309 35.8445 12.9791 34.5922C11.8347 33.4469 11.1676 31.9101 11.1124 30.2921C10.0463 30.2167 9.01063 29.9037 8.08128 29.376C7.15194 28.8483 6.35247 28.1193 5.74152 27.2424C3.64721 28.1086 2.26172 30.1216 2.26172 32.4185C2.26172 34.3502 3.25051 36.1121 4.8596 37.1428C5.59793 36.3614 6.46657 35.7144 7.42667 35.2308C7.58222 35.153 7.76232 35.1401 7.92734 35.1951C8.09237 35.2501 8.2288 35.3684 8.30662 35.5239C8.38444 35.6795 8.39728 35.8596 8.34231 36.0246C8.28734 36.1896 8.16908 36.326 8.01352 36.4039C7.03922 36.8908 6.17461 37.5715 5.47268 38.4044C4.45005 39.6054 3.80318 41.0807 3.61256 42.6466C3.42194 44.2124 3.69599 45.7998 4.40061 47.2111C5.78021 49.9611 8.54464 51.6705 11.6153 51.6705C12.8598 51.6705 14.105 51.3741 15.2144 50.8135C15.3696 50.735 15.5497 50.7214 15.7149 50.7756C15.8802 50.8298 16.0172 50.9475 16.0957 51.1027C16.1742 51.2579 16.1878 51.4379 16.1336 51.6032C16.0794 51.7685 15.9617 51.9054 15.8065 51.9839C14.7128 52.529 13.5227 52.854 12.3038 52.9406C12.6001 56.0932 15.0774 58.6177 18.1992 58.9816C17.4267 56.4945 17.9329 53.791 19.6148 51.7243C19.668 51.6543 19.7347 51.5957 19.811 51.552C19.8873 51.5084 19.9716 51.4805 20.0589 51.47C20.1462 51.4596 20.2347 51.4668 20.3192 51.4912C20.4036 51.5157 20.4823 51.5568 20.5505 51.6123C20.6187 51.6678 20.6751 51.7364 20.7162 51.814C20.7574 51.8917 20.7825 51.9769 20.7901 52.0645C20.7977 52.1521 20.7876 52.2403 20.7604 52.3239C20.7332 52.4075 20.6895 52.4848 20.6318 52.5511C19.8567 53.4951 19.3637 54.6386 19.2094 55.8503C19.0552 57.0619 19.2459 58.2925 19.7597 59.4006C20.1797 60.3259 20.8086 61.1411 21.597 61.7821C22.2628 62.3268 23.0302 62.734 23.8545 62.98C24.6789 63.2261 25.5439 63.3061 26.3993 63.2154C27.2592 63.1287 28.0933 62.872 28.8531 62.4604C29.613 62.0488 30.2836 61.4904 30.826 60.8175C31.7117 59.7275 32.2216 58.3804 32.2797 56.9771V10.0172C32.2797 6.10724 29.1035 2.92578 25.1994 2.92578ZM22.4684 46.9475C22.0349 47.3818 21.5198 47.7261 20.9528 47.9606C20.3858 48.1951 19.778 48.3152 19.1644 48.314C18.5508 48.3151 17.9432 48.195 17.3763 47.9605C16.8093 47.726 16.2944 47.3817 15.8609 46.9475C14.0401 45.126 14.0401 42.1609 15.8609 40.3394C15.9218 40.2785 15.9941 40.2302 16.0736 40.1972C16.1532 40.1643 16.2384 40.1473 16.3245 40.1473C16.4106 40.1473 16.4959 40.1643 16.5754 40.1972C16.6549 40.2302 16.7272 40.2785 16.7881 40.3394C16.849 40.4002 16.8973 40.4725 16.9302 40.5521C16.9632 40.6316 16.9801 40.7169 16.9801 40.8029C16.9801 40.889 16.9632 40.9743 16.9302 41.0538C16.8973 41.1334 16.849 41.2056 16.7881 41.2665C16.1589 41.8976 15.8056 42.7523 15.8056 43.6434C15.8056 44.5346 16.1589 45.3893 16.7881 46.0204C17.4191 46.6493 18.2737 47.0025 19.1647 47.0025C20.0556 47.0025 20.9103 46.6493 21.5413 46.0204C21.6021 45.9595 21.6744 45.9112 21.754 45.8782C21.8335 45.8453 21.9188 45.8283 22.0048 45.8283C22.0909 45.8283 22.1762 45.8453 22.2557 45.8782C22.3353 45.9112 22.4075 45.9595 22.4684 46.0204C22.5293 46.0812 22.5776 46.1535 22.6105 46.233C22.6435 46.3126 22.6604 46.3978 22.6604 46.4839C22.6604 46.57 22.6435 46.6553 22.6105 46.7348C22.5776 46.8144 22.5293 46.8866 22.4684 46.9475ZM44.2593 45.5712C44.3839 45.7286 44.574 45.8138 44.7642 45.8138H52.4097C52.7047 47.0531 53.8194 47.9776 55.1439 47.9776C56.7045 47.9776 57.97 46.7121 57.97 45.1581C57.97 43.6041 56.7045 42.3451 55.1439 42.3451C54.5121 42.3454 53.8988 42.5584 53.4028 42.9497C52.9068 43.3411 52.5569 43.888 52.4097 44.5024H45.0789L41.9316 40.6862C41.807 40.5354 41.6234 40.4436 41.4267 40.4436H33.5911V41.755H41.1119L44.2593 45.5712ZM41.9316 25.4937L45.0789 21.6775H52.4097C52.5588 22.2909 52.9092 22.8366 53.4048 23.2277C53.9004 23.6187 54.5127 23.8324 55.1439 23.8347C56.7045 23.8347 57.97 22.5692 57.97 21.0218C57.97 20.2723 57.6722 19.5534 57.1423 19.0235C56.6123 18.4935 55.8934 18.1957 55.1439 18.1957C53.8194 18.1957 52.7047 19.1203 52.4097 20.3661H44.7642C44.574 20.3661 44.3839 20.4513 44.2593 20.6021L41.1119 24.4183H33.5911V25.7297H41.4267C41.6234 25.7297 41.807 25.6445 41.9316 25.4937ZM48.3574 35.9062C49.918 35.9062 51.1835 34.6472 51.1835 33.0932C51.1835 31.5392 49.918 30.2672 48.3574 30.2672C47.0329 30.2672 45.9182 31.1983 45.6232 32.4375H33.5911V33.7489H45.6232C45.7704 34.3633 46.1203 34.9103 46.6163 35.3016C47.1123 35.6929 47.7256 35.9059 48.3574 35.9062ZM41.9316 15.8877L45.0789 12.0715H58.3372C58.4845 12.6859 58.8343 13.2328 59.3303 13.6242C59.8263 14.0155 60.4396 14.2285 61.0714 14.2287C62.632 14.2287 63.8975 12.9698 63.8975 11.4158C63.8975 9.86178 62.632 8.59627 61.0714 8.59627C59.7469 8.59627 58.6322 9.52081 58.3372 10.7601H44.7642C44.574 10.7601 44.3839 10.8453 44.2593 10.9961L41.1119 14.8189H33.5911V16.1303H41.4267C41.6234 16.1303 41.807 16.0385 41.9316 15.8877ZM61.0714 51.9446C59.7469 51.9446 58.6322 52.8691 58.3372 54.1084H45.0789L41.9316 50.2857C41.8702 50.2114 41.793 50.1517 41.7057 50.1108C41.6184 50.07 41.5231 50.0491 41.4267 50.0496H33.5911V51.361H41.1119L44.2593 55.1772C44.3839 55.328 44.574 55.4198 44.7642 55.4198H58.3372C58.6322 56.6591 59.7535 57.5836 61.0714 57.5836C61.821 57.5836 62.5398 57.2859 63.0698 56.7559C63.5998 56.2259 63.8975 55.5071 63.8975 54.7575C63.8975 53.2101 62.632 51.9446 61.0714 51.9446Z" fill="url(#paint0_linear_706_5297)"/>
<defs>
<linearGradient id="paint0_linear_706_5297" x1="24.3702" y1="21.6137" x2="-7.32154" y2="59.3346" gradientUnits="userSpaceOnUse">
<stop stop-color="#1889D8"/>
<stop offset="1" stop-color="#01FFF0"/>
</linearGradient>
</defs>
</svg>
