<svg width="67" height="67" viewBox="0 0 67 67" fill="none" xmlns="http://www.w3.org/2000/svg">
<path fill-rule="evenodd" clip-rule="evenodd" d="M51.5224 8.47215C52.0961 9.04699 51.6794 10.021 50.8796 10.021C50.6487 10.021 50.4163 9.93234 50.2389 9.75419L46.729 6.24519L46.7293 19.0642C46.7297 36.9907 32.0888 51.6335 14.1627 51.634L10.0405 51.6342C9.79983 51.634 9.5691 51.5384 9.39895 51.3682C9.2288 51.1981 9.13315 50.9673 9.133 50.7267C9.13295 50.6075 9.15639 50.4895 9.20197 50.3794C9.24756 50.2693 9.3144 50.1692 9.39868 50.0849C9.48295 50.0006 9.58301 49.9338 9.69313 49.8882C9.80325 49.8426 9.92128 49.8192 10.0405 49.8193L14.1627 49.8191C31.1198 49.8187 44.9149 36.0223 44.9144 19.0644L44.9141 6.24533L41.4059 9.75445C41.3217 9.83879 41.2216 9.9057 41.1115 9.95135C41.0014 9.997 40.8833 10.0205 40.7641 10.0205C40.6449 10.0205 40.5268 9.997 40.4167 9.95135C40.3066 9.9057 40.2065 9.83879 40.1223 9.75445C39.7676 9.40132 39.7676 8.82714 40.1223 8.47241L45.1802 3.41666C45.5328 3.05863 46.1118 3.05943 46.4638 3.41666L51.5224 8.47215ZM58.3132 61.2197L53.7736 61.2198L53.7724 14.0178L58.312 14.0176L58.3132 61.2197ZM59.2194 12.2035L52.865 12.2036C52.6245 12.2036 52.3939 12.2992 52.2239 12.4692C52.0538 12.6392 51.9583 12.8698 51.9583 13.1103L51.9595 62.1265C51.9595 62.6272 52.3654 63.0339 52.8662 63.0339L59.2206 63.0338C59.4613 63.0337 59.692 62.938 59.8621 62.7679C60.0323 62.5977 60.1279 62.367 60.1281 62.1263L60.1269 13.11C60.1269 12.6093 59.7201 12.2035 59.2194 12.2035ZM44.3528 61.2201L44.3524 46.0058L39.8128 46.006L39.8132 61.2202L44.3528 61.2201ZM45.2598 44.1909L38.9062 44.191C38.6655 44.1911 38.4347 44.2867 38.2645 44.4569C38.0944 44.627 37.9987 44.8578 37.9987 45.0985L37.9991 62.1269C37.9991 62.3675 38.0948 62.5983 38.2649 62.7685C38.4351 62.9387 38.6659 63.0343 38.9066 63.0343L45.2602 63.0342C45.5009 63.0341 45.7316 62.9384 45.9017 62.7682C46.0719 62.5981 46.1676 62.3674 46.1677 62.1267L46.1673 45.0984C46.1672 44.8577 46.0715 44.627 45.9014 44.4569C45.7312 44.2867 45.5005 44.1911 45.2598 44.1909ZM30.3924 61.2205L25.8536 61.2206L25.8535 54.9242L30.3923 54.9241L30.3924 61.2205ZM31.2997 53.1091L24.946 53.1092C24.7054 53.1093 24.4747 53.205 24.3045 53.3751C24.1344 53.5453 24.0387 53.776 24.0386 54.0167L24.0387 62.1271C24.0389 62.3678 24.1345 62.5985 24.3047 62.7686C24.4748 62.9388 24.7055 63.0345 24.9462 63.0346L31.2998 63.0345C31.5405 63.0344 31.7713 62.9388 31.9415 62.7686C32.1116 62.5985 32.2073 62.3677 32.2073 62.127L32.207 54.0165C32.2071 53.8974 32.1836 53.7794 32.138 53.6693C32.0924 53.5592 32.0256 53.4591 31.9413 53.3749C31.8571 53.2906 31.757 53.2237 31.647 53.1781C31.5369 53.1325 31.4189 53.1091 31.2997 53.1091ZM16.4328 61.2207L11.8932 61.2209L11.8931 56.6813L16.4327 56.6812L16.4328 61.2207ZM17.3401 54.8663L10.9856 54.8664C10.745 54.8665 10.5143 54.9622 10.3441 55.1323C10.174 55.3025 10.0783 55.5332 10.0782 55.7739L10.0783 62.1275C10.0785 62.3682 10.1741 62.5989 10.3443 62.769C10.5144 62.9392 10.7451 63.0349 10.9858 63.035L17.3402 63.0349C17.841 63.0349 18.2469 62.6281 18.2469 62.1274L18.2468 55.7737C18.2468 55.5332 18.1513 55.3025 17.9813 55.1323C17.8113 54.9621 17.5807 54.8664 17.3401 54.8663ZM8.08379 29.9172C8.08379 31.622 9.47065 33.0073 11.1739 33.0073C11.549 33.0073 11.9226 32.8902 12.2771 33.2948C12.6932 33.7698 12.3887 34.1678 12.3887 34.8376C12.3887 37.2886 15.1133 38.7466 17.147 37.4375C17.7282 37.0633 18.51 37.4557 18.5445 38.1577C18.7127 41.5863 22.2189 43.7504 25.3325 42.4837L25.3321 27.443L20.0724 27.4432C19.733 29.2129 18.4257 30.7075 16.6606 31.2351C16.5759 31.2602 16.4881 31.2731 16.3998 31.2734C15.3693 31.2734 15.1407 29.7964 16.1413 29.4967C17.4379 29.1082 18.3438 27.8912 18.3438 26.5357C18.3438 25.181 17.4378 23.9625 16.1412 23.5756C15.6611 23.4319 15.3874 22.9258 15.5311 22.4458C15.6749 21.9665 16.1802 21.6928 16.6603 21.8372C18.4255 22.3638 19.7329 23.8585 20.0723 25.6282L25.332 25.6281L25.3316 10.5875C22.22 9.3219 18.712 11.4848 18.5438 14.9148C18.5098 15.6094 17.731 16.009 17.1463 15.6327C16.6487 15.3132 16.0696 15.1436 15.4782 15.1441C13.4751 15.1441 12.0048 17.0278 12.4754 18.9651C12.6225 19.5708 12.1213 20.1489 11.4991 20.0813C9.68998 19.8843 8.08339 21.3156 8.08339 23.1531C8.08339 24.2203 8.62315 25.1981 9.52678 25.7692C10.0926 26.126 10.0888 26.9495 9.52678 27.3035C8.62342 27.8737 8.08366 28.8516 8.08379 29.9172ZM27.1472 31.653C29.5829 31.2226 31.4383 29.0918 31.4382 26.5353C31.4382 23.9789 29.5826 21.849 27.1469 21.4179L27.1472 31.653ZM28.1184 14.1193H27.1468L27.1469 19.5831C30.5864 20.0302 33.2531 22.9757 33.2531 26.5352C33.2532 30.0946 30.5867 33.0404 27.1472 33.4868L27.1473 38.9515H28.119L29.0562 36.0685C29.0985 35.9389 29.1693 35.8204 29.2635 35.7218C29.3577 35.6232 29.4729 35.5471 29.6005 35.499C30.5873 35.1285 31.5061 34.5973 32.3197 33.9271C32.4247 33.8399 32.5482 33.7778 32.6808 33.7454C32.8133 33.7129 32.9516 33.711 33.085 33.7398L36.0543 34.3711L37.9325 31.1151L35.9028 28.8606C35.8116 28.7594 35.7443 28.6389 35.7059 28.5082C35.6675 28.3774 35.659 28.2397 35.6811 28.1052C35.8546 27.0653 35.8546 26.0038 35.681 24.9639C35.6588 24.8295 35.6672 24.6918 35.7056 24.561C35.744 24.4303 35.8114 24.3098 35.9027 24.2087L37.9323 21.9534L36.0538 18.6989L33.0838 19.3306C32.9502 19.3588 32.812 19.3567 32.6794 19.3243C32.5468 19.2918 32.4232 19.23 32.3178 19.1433C31.5048 18.473 30.5865 17.942 29.6001 17.5716C29.4722 17.524 29.3568 17.448 29.2625 17.3493C29.1682 17.2507 29.0975 17.132 29.0557 17.0021L28.1184 14.1193ZM10.5737 34.8374C10.5739 38.1496 13.796 40.4878 16.9168 39.5267C17.9674 43.8214 22.8113 45.9344 26.6703 43.8566C26.8146 43.7788 26.9352 43.6634 27.0192 43.5226C27.1032 43.3818 27.1475 43.2208 27.1473 43.0569V40.7664H28.564C28.8181 40.767 29.0658 40.6868 29.2714 40.5374C29.477 40.3881 29.6298 40.1772 29.7077 39.9353L30.6502 37.0341C31.5321 36.6639 32.3636 36.1836 33.1248 35.6045L36.111 36.2382C36.3595 36.2914 36.6184 36.2644 36.8506 36.1611C37.0828 36.0578 37.2762 35.8835 37.403 35.6632L39.7269 31.6382C39.8544 31.4184 39.9087 31.1638 39.8822 30.9112C39.8557 30.6585 39.7496 30.4208 39.5793 30.2322L37.5358 27.9633C37.655 27.0154 37.6551 26.0535 37.5357 25.1063L39.5792 22.8381C39.7495 22.6495 39.8555 22.4118 39.882 22.1592C39.9085 21.9065 39.8541 21.6519 39.7267 21.4322L37.4026 17.4071C37.2761 17.1865 37.0828 17.0118 36.8506 16.9084C36.6183 16.8049 36.3592 16.778 36.1106 16.8315L33.1238 17.4668C32.3631 16.8875 31.5321 16.4069 30.6506 16.0365L29.7072 13.1353C29.6291 12.8935 29.4763 12.6827 29.2708 12.5334C29.0652 12.384 28.8175 12.3038 28.5634 12.3044H27.1468V10.0132C27.1468 9.67914 26.9641 9.37259 26.6698 9.21429C22.8075 7.13637 17.9662 9.25109 16.9164 13.5446C13.8007 12.5904 10.5735 14.8853 10.5735 18.2861C8.15156 18.5829 6.2694 20.6523 6.26953 23.153C6.26953 24.4358 6.76032 25.636 7.61973 26.5358C6.76045 27.4356 6.26966 28.636 6.2698 29.9172C6.2698 32.4194 8.15209 34.4896 10.574 34.7854C10.5737 34.8024 10.5737 34.82 10.5737 34.8374Z" fill="url(#paint0_linear_706_5302)"/>
<defs>
<linearGradient id="paint0_linear_706_5302" x1="25.5884" y1="21.7003" x2="-6.31631" y2="55.1264" gradientUnits="userSpaceOnUse">
<stop stop-color="#1889D8"/>
<stop offset="1" stop-color="#01FFF0"/>
</linearGradient>
</defs>
</svg>
