<svg width="55" height="56" viewBox="0 0 55 56" fill="none" xmlns="http://www.w3.org/2000/svg">
<path fill-rule="evenodd" clip-rule="evenodd" d="M8.82478 11.8082C8.70272 11.8088 8.58173 11.7854 8.46873 11.7392C8.35572 11.6931 8.25291 11.6251 8.16617 11.5393C7.99098 11.3658 7.89187 11.1299 7.89064 10.8834C7.8894 10.6368 7.98615 10.3999 8.15959 10.2247C8.33304 10.0496 8.56897 9.95045 8.81549 9.94922H8.82478C9.0713 9.94922 9.30772 10.0471 9.48204 10.2215C9.65635 10.3958 9.75428 10.6322 9.75428 10.8787C9.75428 11.1252 9.65635 11.3617 9.48204 11.536C9.30772 11.7103 9.0713 11.8082 8.82478 11.8082Z" fill="url(#paint0_linear_706_5109)"/>
<path d="M17.7085 34.5236C17.8211 34.5707 17.9419 34.595 18.064 34.5953C18.1861 34.5956 18.307 34.5719 18.4199 34.5254C18.5328 34.479 18.6355 34.4108 18.722 34.3247C18.8085 34.2386 18.8773 34.1362 18.9242 34.0236L20.2348 30.8772H25.1928L26.5034 34.0236C26.5983 34.2511 26.7797 34.4316 27.0077 34.5254C27.2357 34.6192 27.4916 34.6186 27.7192 34.5236C27.9467 34.4287 28.1272 34.2473 28.221 34.0193C28.3148 33.7913 28.3142 33.5354 28.2192 33.3079L23.5717 22.1539C23.5011 21.9845 23.382 21.8398 23.2293 21.7381C23.0767 21.6363 22.8973 21.582 22.7138 21.582C22.5303 21.582 22.351 21.6363 22.1983 21.7381C22.0456 21.8398 21.9265 21.9845 21.8559 22.1539L17.2084 33.3079C17.1614 33.4205 17.137 33.5413 17.1367 33.6634C17.1364 33.7855 17.1602 33.9064 17.2066 34.0193C17.253 34.1322 17.3213 34.2349 17.4074 34.3214C17.4935 34.4079 17.5958 34.4767 17.7085 34.5236ZM22.7138 24.9284L24.4176 29.0182H21.01L22.7138 24.9284Z" fill="url(#paint1_linear_706_5109)"/>
<path fill-rule="evenodd" clip-rule="evenodd" d="M30.1522 32.736C29.9056 32.736 29.6692 32.834 29.4949 33.0083C29.3206 33.1826 29.2227 33.419 29.2227 33.6655C29.2227 33.9121 29.3206 34.1485 29.4949 34.3228C29.6692 34.4971 29.9056 34.595 30.1522 34.595H35.7292C35.9757 34.595 36.2121 34.4971 36.3864 34.3228C36.5607 34.1485 36.6587 33.9121 36.6587 33.6655C36.6587 33.419 36.5607 33.1826 36.3864 33.0083C36.2121 32.834 35.9757 32.736 35.7292 32.736H33.8702V23.441H35.7292C35.9757 23.441 36.2121 23.3431 36.3864 23.1688C36.5607 22.9945 36.6587 22.7581 36.6587 22.5115C36.6587 22.265 36.5607 22.0286 36.3864 21.8543C36.2121 21.68 35.9757 21.582 35.7292 21.582H30.1522C29.9056 21.582 29.6692 21.68 29.4949 21.8543C29.3206 22.0286 29.2227 22.265 29.2227 22.5115C29.2227 22.7581 29.3206 22.9945 29.4949 23.1688C29.6692 23.3431 29.9056 23.441 30.1522 23.441H32.0112V32.736H30.1522Z" fill="url(#paint2_linear_706_5109)"/>
<path d="M0.40625 41.1011C0.40625 42.0872 0.797967 43.0329 1.49523 43.7301C2.19249 44.4274 3.13818 44.8191 4.12425 44.8191C4.58998 44.8174 5.05114 44.7272 5.48318 44.5533C7.68052 46.2357 10.7813 47.1131 14.5923 47.1131C15.1667 47.1131 15.7635 47.0862 16.3686 47.0471C19.0678 52.5628 22.9624 55.9731 27.3618 55.9731C31.7611 55.9731 35.6557 52.5628 38.3559 47.0499C38.9619 47.089 39.5577 47.1159 40.1322 47.1159C43.9431 47.1159 47.0439 46.2385 49.2413 44.5561C49.6735 44.729 50.1336 44.8182 50.5993 44.8191C51.3985 44.8168 52.1756 44.5571 52.8156 44.0784C53.4556 43.5997 53.9243 42.9275 54.1522 42.1615C54.3802 41.3955 54.3552 40.5765 54.0811 39.8257C53.8069 39.075 53.2982 38.4327 52.6302 37.9938C52.7603 35.0008 51.6031 31.6044 49.2478 28.0881C51.6031 24.5728 52.7603 21.1764 52.6302 18.1824C53.4057 17.682 53.9668 16.9104 54.2039 16.0184C54.441 15.1265 54.3371 14.1781 53.9124 13.3587C53.4878 12.5392 52.7729 11.9075 51.9074 11.5869C51.0419 11.2663 50.088 11.2798 49.232 11.6248C46.7065 9.69239 42.9774 8.83632 38.3568 9.13748C35.6594 3.61718 31.7629 0.203125 27.3618 0.203125C22.9606 0.203125 19.0669 3.61439 16.3676 9.13097C15.0295 9.035 13.6857 9.05148 12.3503 9.18024C12.2259 9.19008 12.1048 9.22543 11.9946 9.28408C11.8844 9.34274 11.7874 9.42344 11.7097 9.52117C11.632 9.61891 11.5753 9.73158 11.543 9.85218C11.5108 9.97278 11.5036 10.0987 11.5221 10.2222C11.5965 10.7158 12.0399 11.0681 12.5381 11.0299C13.5403 10.9311 14.5483 10.9044 15.5543 10.95C14.4011 13.8295 13.5839 16.8324 13.119 19.8992C10.7151 21.835 8.53943 24.0382 6.6339 26.4661C5.064 24.1883 4.13027 21.5328 3.92906 18.7736C3.99505 18.7736 4.05733 18.7931 4.12425 18.7931C5.02144 18.7968 5.88993 18.4771 6.57071 17.8928C7.2515 17.3084 7.69904 16.4984 7.8314 15.611C7.96376 14.7236 7.77209 13.8182 7.29148 13.0606C6.81086 12.303 6.07346 11.7439 5.21426 11.4855C4.35506 11.2272 3.43156 11.2869 2.61282 11.6538C1.79407 12.0207 1.13487 12.6703 0.755883 13.4835C0.376897 14.2967 0.303487 15.2192 0.549091 16.0821C0.794694 16.9451 1.34288 17.6907 2.09329 18.1824C1.96223 21.1745 3.12039 24.5709 5.47574 28.0881C3.12039 31.6044 1.96223 35.0008 2.09329 37.9938C1.57583 38.3306 1.15056 38.7911 0.855977 39.3337C0.561397 39.8762 0.406821 40.4837 0.40625 41.1011ZM4.12425 13.2161C4.61729 13.2161 5.09013 13.412 5.43876 13.7606C5.78739 14.1092 5.98325 14.5821 5.98325 15.0751C5.98325 15.5682 5.78739 16.041 5.43876 16.3896C5.09013 16.7383 4.61729 16.9341 4.12425 16.9341C3.63121 16.9341 3.15837 16.7383 2.80974 16.3896C2.46111 16.041 2.26525 15.5682 2.26525 15.0751C2.26525 14.5821 2.46111 14.1092 2.80974 13.7606C3.15837 13.412 3.63121 13.2161 4.12425 13.2161ZM2.26525 41.1011C2.26525 40.6081 2.46111 40.1352 2.80974 39.7866C3.15837 39.438 3.63121 39.2421 4.12425 39.2421C4.61729 39.2421 5.09013 39.438 5.43876 39.7866C5.78739 40.1352 5.98325 40.6081 5.98325 41.1011C5.98325 41.5942 5.78739 42.067 5.43876 42.4156C5.09013 42.7643 4.61729 42.9601 4.12425 42.9601C3.63121 42.9601 3.15837 42.7643 2.80974 42.4156C2.46111 42.067 2.26525 41.5942 2.26525 41.1011ZM17.5174 11.0969C19.9917 11.3934 22.4298 11.9409 24.7935 12.73C21.4536 14.2132 18.2802 16.0462 15.3266 18.1982C15.8139 15.7629 16.548 13.3835 17.5174 11.0969ZM14.859 20.8873C16.7547 19.3851 18.7589 18.0252 20.8553 16.8189C22.9467 15.6094 25.1231 14.5532 27.3673 13.6586C29.6093 14.5537 31.7843 15.6105 33.8738 16.8189C35.9699 18.0252 37.9738 19.385 39.8691 20.8873C40.2093 23.2724 40.3785 25.6789 40.3748 28.0881C40.3765 30.4975 40.206 32.9039 39.8645 35.289C37.9688 36.7912 35.9646 38.151 33.8683 39.3574C31.7786 40.566 29.604 41.6216 27.3618 42.5158C25.1193 41.6211 22.9448 40.5649 20.8553 39.3555C18.7591 38.1492 16.7552 36.7894 14.86 35.2871C14.1796 30.5107 14.1796 25.6619 14.86 20.8854L14.859 20.8873ZM39.3979 18.1982C37.9185 17.1207 36.383 16.1226 34.7978 15.208C33.2207 14.3007 31.5989 13.4736 29.9383 12.73C32.2993 11.9399 34.7346 11.3934 37.207 11.0969C38.1758 13.3836 38.9092 15.763 39.396 18.1982H39.3979ZM37.2061 45.0794C34.7316 44.7831 32.2937 44.2359 29.93 43.4463C33.2699 41.9631 36.4433 40.1301 39.3969 37.978C38.9096 40.4134 38.1755 42.7928 37.2061 45.0794ZM41.9596 22.644C43.8118 24.2855 45.494 26.1094 46.9807 28.0881C45.4946 30.0667 43.813 31.8906 41.9614 33.5322C42.1436 31.7234 42.2347 29.9062 42.2338 28.0881C42.2338 26.27 42.1427 24.4538 41.9596 22.644ZM19.9258 40.9682C21.5028 41.8756 23.1246 42.7027 24.7852 43.4463C22.4242 44.2363 19.989 44.7829 17.5165 45.0794C16.5474 42.7927 15.8136 40.4133 15.3266 37.978C16.8056 39.0555 18.3408 40.0536 19.9258 40.9682ZM27.3618 54.1141C23.8706 54.1141 20.6982 51.3451 18.3586 46.8538C21.4392 46.4171 24.4598 45.6299 27.3618 44.5077C30.2648 45.6304 33.2867 46.4175 36.3686 46.8538C34.0244 51.3451 30.853 54.1141 27.3618 54.1141ZM50.5993 42.9601C50.1062 42.9601 49.6334 42.7643 49.2847 42.4156C48.9361 42.067 48.7403 41.5942 48.7403 41.1011C48.7403 40.6081 48.9361 40.1352 49.2847 39.7866C49.6334 39.438 50.1062 39.2421 50.5993 39.2421C51.0923 39.2421 51.5651 39.438 51.9138 39.7866C52.2624 40.1352 52.4583 40.6081 52.4583 41.1011C52.4583 41.5942 52.2624 42.067 51.9138 42.4156C51.5651 42.7643 51.0923 42.9601 50.5993 42.9601ZM50.7945 37.4026C50.7285 37.4026 50.6662 37.3831 50.5993 37.3831C49.6132 37.3831 48.6675 37.7748 47.9702 38.4721C47.273 39.1694 46.8813 40.115 46.8813 41.1011C46.885 41.9321 47.1694 42.737 47.689 43.3868C45.6645 44.7225 42.7097 45.3573 39.1701 45.2244C40.3225 42.3453 41.1394 39.3431 41.6045 36.277C44.0086 34.3411 46.1843 32.1376 48.0896 29.7092C49.659 31.9877 50.5927 34.6433 50.7945 37.4026ZM52.4583 15.0751C52.4583 15.5682 52.2624 16.041 51.9138 16.3896C51.5651 16.7383 51.0923 16.9341 50.5993 16.9341C50.1062 16.9341 49.6334 16.7383 49.2847 16.3896C48.9361 16.041 48.7403 15.5682 48.7403 15.0751C48.7403 14.5821 48.9361 14.1092 49.2847 13.7606C49.6334 13.412 50.1062 13.2161 50.5993 13.2161C51.0923 13.2161 51.5651 13.412 51.9138 13.7606C52.2624 14.1092 52.4583 14.5821 52.4583 15.0751ZM47.689 12.7895C47.1695 13.4383 46.8848 14.2439 46.8813 15.0751C46.8813 16.0612 47.273 17.0069 47.9702 17.7041C48.6675 18.4014 49.6132 18.7931 50.5993 18.7931C50.6662 18.7931 50.7285 18.7773 50.7945 18.7736C50.593 21.533 49.6593 24.1887 48.0896 26.4671C46.184 24.0386 44.008 21.8351 41.6036 19.8992C41.1378 16.833 40.32 13.8307 39.1664 10.9519C42.7087 10.818 45.6655 11.4501 47.689 12.7895ZM27.3618 2.06212C30.853 2.06212 34.0253 4.83111 36.3649 9.32245C33.2859 9.75954 30.2669 10.5467 27.3664 11.6685C24.4632 10.5461 21.4413 9.75866 18.3595 9.32152C20.6991 4.83111 23.8706 2.06212 27.3618 2.06212ZM12.7686 22.644C12.403 26.2642 12.403 29.912 12.7686 33.5322C10.9142 31.8914 9.23039 30.0675 7.74279 28.0881C9.2309 26.1092 10.9147 24.2853 12.7686 22.644ZM6.6339 29.7082C8.54032 32.136 10.7166 34.3392 13.1209 36.2752C13.5856 39.3425 14.4036 42.3448 15.5571 45.2253C12.0194 45.3592 9.06269 44.7225 7.03823 43.3868C7.55644 42.7374 7.8398 41.9319 7.84225 41.1011C7.84225 40.115 7.45053 39.1694 6.75327 38.4721C6.05601 37.7748 5.11033 37.3831 4.12425 37.3831C4.05733 37.3831 3.99505 37.3999 3.92906 37.4026C4.13058 34.6436 5.06428 31.9881 6.6339 29.7101V29.7082Z" fill="url(#paint3_linear_706_5109)"/>
<defs>
<linearGradient id="paint0_linear_706_5109" x1="8.55911" y1="10.5251" x2="7.57946" y2="11.6692" gradientUnits="userSpaceOnUse">
<stop stop-color="#1889D8"/>
<stop offset="1" stop-color="#01FFF0"/>
</linearGradient>
<linearGradient id="paint1_linear_706_5109" x1="21.1377" y1="25.6133" x2="14.1973" y2="32.5434" gradientUnits="userSpaceOnUse">
<stop stop-color="#1889D8"/>
<stop offset="1" stop-color="#01FFF0"/>
</linearGradient>
<linearGradient id="paint2_linear_706_5109" x1="31.8899" y1="25.6132" x2="25.4872" y2="29.8754" gradientUnits="userSpaceOnUse">
<stop stop-color="#1889D8"/>
<stop offset="1" stop-color="#01FFF0"/>
</linearGradient>
<linearGradient id="paint3_linear_706_5109" x1="19.7479" y1="17.4797" x2="-9.78663" y2="50.7459" gradientUnits="userSpaceOnUse">
<stop stop-color="#1889D8"/>
<stop offset="1" stop-color="#01FFF0"/>
</linearGradient>
</defs>
</svg>
