<svg width="44" height="45" viewBox="0 0 44 45" fill="none" xmlns="http://www.w3.org/2000/svg">
<path d="M34.544 5.95312H9.08949C7.08949 5.95312 5.45312 7.58949 5.45312 9.58949V35.044C5.45312 37.044 7.08949 38.6804 9.08949 38.6804H34.544C36.544 38.6804 38.1804 37.044 38.1804 35.044V9.58949C38.1804 7.58949 36.544 5.95312 34.544 5.95312ZM21.8168 9.58949H24.544V15.044L28.1804 9.58949H31.2713L27.6349 15.044L31.2713 20.4986H28.1804L24.544 15.044V20.4986H21.8168V9.58949ZM12.7259 13.6804H17.2713V12.3168H12.7259V9.58949H19.9986V16.4077H15.4531V17.7713H19.9986V20.4986H12.7259V13.6804ZM34.544 24.1349L23.6349 35.044L16.3622 27.7713L9.08949 35.044V30.4986L16.3622 23.2259L23.6349 30.4986L34.544 19.5895V24.1349Z" fill="url(#paint0_linear_706_5513)"/>
<defs>
<linearGradient id="paint0_linear_706_5513" x1="17.1923" y1="16.0915" x2="-0.0607061" y2="36.1903" gradientUnits="userSpaceOnUse">
<stop stop-color="#1889D8"/>
<stop offset="1" stop-color="#01FFF0"/>
</linearGradient>
</defs>
</svg>
