<svg width="45" height="45" viewBox="0 0 45 45" fill="none" xmlns="http://www.w3.org/2000/svg">
<path d="M36.8804 28.4622C34.644 28.4622 32.4804 28.0986 30.4622 27.444C29.8259 27.2259 29.1168 27.3895 28.6259 27.8804L25.7713 31.4622C20.6259 29.0077 15.8077 24.3713 13.244 19.044L16.7895 16.0259C17.2804 15.5168 17.4259 14.8077 17.2259 14.1713C16.5531 12.1531 16.2077 9.98949 16.2077 7.75313C16.2077 6.77131 15.3895 5.95313 14.4077 5.95313H8.11676C7.13494 5.95312 5.95312 6.38949 5.95312 7.75313C5.95312 24.644 20.0077 38.6804 36.8804 38.6804C38.1713 38.6804 38.6804 37.5349 38.6804 36.5349V30.2622C38.6804 29.2804 37.8622 28.4622 36.8804 28.4622Z" fill="url(#paint0_linear_706_5363)"/>
<defs>
<linearGradient id="paint0_linear_706_5363" x1="17.6923" y1="16.0915" x2="0.439294" y2="36.1903" gradientUnits="userSpaceOnUse">
<stop stop-color="#1889D8"/>
<stop offset="1" stop-color="#01FFF0"/>
</linearGradient>
</defs>
</svg>
