<svg width="57" height="66" viewBox="0 0 57 66" fill="none" xmlns="http://www.w3.org/2000/svg">
<path fill-rule="evenodd" clip-rule="evenodd" d="M18.6639 9.08829C18.4078 9.08829 18.1575 9.16423 17.9445 9.30652C17.7316 9.4488 17.5656 9.65104 17.4676 9.88765C17.3696 10.1243 17.3439 10.3846 17.3939 10.6358C17.4439 10.887 17.5672 11.1177 17.7483 11.2988C17.9294 11.4799 18.1601 11.6032 18.4113 11.6532C18.6625 11.7032 18.9229 11.6775 19.1595 11.5795C19.3961 11.4815 19.5983 11.3155 19.7406 11.1026C19.8829 10.8896 19.9588 10.6393 19.9588 10.3832C19.9583 10.0399 19.8217 9.71085 19.579 9.46811C19.3363 9.22538 19.0072 9.08879 18.6639 9.08829ZM14.3719 13.6408C14.3718 13.3847 14.2958 13.1343 14.1534 12.9214C14.0111 12.7085 13.8088 12.5426 13.5721 12.4447C13.3355 12.3468 13.0751 12.3212 12.8239 12.3712C12.5727 12.4213 12.342 12.5447 12.161 12.7258C11.9799 12.907 11.8566 13.1377 11.8067 13.3889C11.7568 13.6401 11.7825 13.9005 11.8805 14.1371C11.9786 14.3737 12.1446 14.5759 12.3576 14.7182C12.5705 14.8604 12.8209 14.9364 13.077 14.9363C13.4205 14.936 13.7498 14.7994 13.9926 14.5565C14.2354 14.3136 14.3718 13.9842 14.3719 13.6408ZM8.75354 24.3374C8.49731 24.3371 8.24677 24.4128 8.03361 24.555C7.82044 24.6971 7.65424 24.8993 7.55602 25.136C7.45781 25.3726 7.432 25.6331 7.48185 25.8844C7.53172 26.1357 7.65501 26.3666 7.83613 26.5478C8.01725 26.7291 8.24806 26.8525 8.49935 26.9025C8.75064 26.9525 9.01112 26.9269 9.24783 26.8288C9.48454 26.7307 9.68683 26.5646 9.82911 26.3515C9.9714 26.1385 10.0473 25.888 10.0472 25.6317C10.0466 25.2887 9.91021 24.9599 9.66774 24.7173C9.42528 24.4747 9.09654 24.3381 8.75354 24.3374ZM11.782 37.6238C11.7819 37.88 11.8578 38.1304 12 38.3435C12.1422 38.5565 12.3445 38.7226 12.5811 38.8206C12.8177 38.9187 13.0781 38.9445 13.3294 38.8946C13.5806 38.8446 13.8114 38.7213 13.9926 38.5403C14.1737 38.3592 14.2971 38.1284 14.3471 37.8772C14.3972 37.626 14.3715 37.3655 14.2735 37.1289C14.1755 36.8922 14.0095 36.6899 13.7966 36.5476C13.5836 36.4053 13.3332 36.3293 13.077 36.3293C12.7337 36.3296 12.4044 36.4661 12.1616 36.7088C11.9188 36.9516 11.7823 37.2809 11.782 37.6242V37.6238ZM17.369 40.8813C17.369 41.1374 17.445 41.3878 17.5873 41.6007C17.7295 41.8137 17.9318 41.9796 18.1684 42.0777C18.405 42.1757 18.6654 42.2013 18.9165 42.1513C19.1677 42.1014 19.3985 41.978 19.5796 41.797C19.7607 41.6159 19.884 41.3851 19.9339 41.1339C19.9839 40.8828 19.9583 40.6224 19.8603 40.3858C19.7623 40.1492 19.5963 39.9469 19.3833 39.8046C19.1704 39.6624 18.92 39.5864 18.6639 39.5864C18.3206 39.5867 17.9914 39.7232 17.7486 39.966C17.5058 40.2088 17.3693 40.538 17.369 40.8813ZM26.4577 32.0205C28.0196 31.8324 29.4585 31.0785 30.5024 29.9014C31.5462 28.7243 32.1226 27.2056 32.1226 25.6323C32.1226 24.0591 31.5462 22.5403 30.5024 21.3632C29.4585 20.1861 28.0196 19.4322 26.4577 19.2441V32.0205ZM19.4325 13.1082V18.3484H24.9247C24.9446 18.1596 25.0338 17.9849 25.1749 17.8579C25.316 17.7309 25.4992 17.6607 25.689 17.6607C27.8031 17.6607 29.8306 18.5006 31.3255 19.9954C32.8204 21.4903 33.6602 23.5178 33.6602 25.6319C33.6602 27.7459 32.8204 29.7734 31.3255 31.2683C29.8306 32.7632 27.8031 33.603 25.689 33.603C25.4994 33.6028 25.3164 33.5326 25.1754 33.4058C25.0343 33.279 24.945 33.1045 24.9247 32.916H19.4325V38.1554C20.0906 38.341 20.6594 38.7584 21.0336 39.3306C21.4079 39.9028 21.5625 40.5912 21.4688 41.2685C21.3752 41.9458 21.0396 42.5663 20.524 43.0155C20.0085 43.4646 19.3478 43.7121 18.6641 43.7121C17.9803 43.7121 17.3196 43.4646 16.8041 43.0155C16.2885 42.5663 15.9529 41.9458 15.8593 41.2685C15.7656 40.5912 15.9202 39.9028 16.2945 39.3306C16.6688 38.7584 17.2375 38.341 17.8956 38.1554V32.6406C17.8959 32.3063 18.0288 31.9859 18.2651 31.7495C18.5014 31.513 18.8218 31.38 19.156 31.3794H24.9207V29.6578H13.8459V34.8987C14.5041 35.0842 15.0729 35.5017 15.4473 36.074C15.8216 36.6463 15.9763 37.3347 15.8826 38.0122C15.7889 38.6896 15.4533 39.3102 14.9377 39.7594C14.422 40.2087 13.7613 40.4561 13.0774 40.4561C12.3936 40.4561 11.7328 40.2087 11.2172 39.7594C10.7016 39.3102 10.3659 38.6896 10.2722 38.0122C10.1786 37.3347 10.3332 36.6463 10.7076 36.074C11.0819 35.5017 11.6507 35.0842 12.3089 34.8987V29.3823C12.3091 29.0481 12.4419 28.7276 12.6781 28.4912C12.9143 28.2548 13.2347 28.1217 13.5689 28.1213H24.9207V26.4009H11.4787C11.2931 27.0592 10.8756 27.6282 10.3031 28.0027C9.73073 28.3772 9.04213 28.5319 8.36455 28.4382C7.68696 28.3445 7.06616 28.0088 6.61681 27.4931C6.16747 26.9773 5.91993 26.3164 5.91993 25.6324C5.91993 24.9483 6.16747 24.2874 6.61681 23.7717C7.06616 23.2559 7.68696 22.9202 8.36455 22.8266C9.04213 22.7329 9.73073 22.8876 10.3031 23.2621C10.8756 23.6365 11.2931 24.2055 11.4787 24.8639H24.9207V23.1434H13.5689C13.2347 23.1428 12.9144 23.0097 12.6782 22.7733C12.442 22.5369 12.3092 22.2165 12.3089 21.8823V16.3666C11.6507 16.181 11.0819 15.7635 10.7076 15.1913C10.3332 14.619 10.1786 13.9305 10.2722 13.2531C10.3659 12.5757 10.7016 11.9551 11.2172 11.5058C11.7328 11.0566 12.3936 10.8091 13.0774 10.8091C13.7613 10.8091 14.422 11.0566 14.9377 11.5058C15.4533 11.9551 15.7889 12.5757 15.8826 13.2531C15.9763 13.9305 15.8216 14.619 15.4473 15.1913C15.0729 15.7635 14.5041 16.181 13.8459 16.3666V21.6062H24.9207V19.8851H19.1558C18.8216 19.8847 18.5013 19.7518 18.265 19.5155C18.0287 19.2792 17.8958 18.9588 17.8953 18.6247V13.1082C17.237 12.9227 16.6682 12.5051 16.2938 11.9328C15.9193 11.3604 15.7647 10.672 15.8584 9.99447C15.952 9.31698 16.2877 8.69628 16.8034 8.24701C17.319 7.79773 17.9799 7.55024 18.6638 7.55024C19.3477 7.55024 20.0086 7.79773 20.5242 8.24701C21.0399 8.69628 21.3756 9.31698 21.4692 9.99447C21.5629 10.672 21.4083 11.3604 21.0338 11.9328C20.6594 12.5051 20.0906 12.9227 19.4323 13.1082H19.4325ZM43.9189 22.8074V28.4572L40.5943 28.865C40.442 28.8836 40.2986 28.9474 40.1828 29.0483C40.0671 29.1491 39.9841 29.2822 39.9447 29.4306C39.6097 30.6898 39.1088 31.8988 38.4553 33.026C38.3781 33.1585 38.3425 33.3111 38.3529 33.4641C38.3634 33.617 38.4195 33.7634 38.5139 33.8841L40.576 36.5259L36.5826 40.5206L33.9413 38.4571C33.8203 38.3627 33.6738 38.3067 33.5207 38.2961C33.3676 38.2855 33.2148 38.321 33.082 38.3978C31.9552 39.0524 30.7461 39.5536 29.4866 39.8881C29.3385 39.9276 29.2056 40.0105 29.105 40.1261C29.0043 40.2417 28.9405 40.3848 28.9217 40.5369L28.5132 43.8628H26.4577V36.6286C29.2413 36.4338 31.8474 35.1906 33.7504 33.1498C35.6534 31.109 36.7116 28.4224 36.7116 25.632C36.7116 22.8416 35.6534 20.155 33.7504 18.1142C31.8474 16.0734 29.2413 14.8302 26.4577 14.6353V7.40236H28.5134L28.9218 10.7276C28.9406 10.8797 29.0044 11.0227 29.1051 11.1383C29.2058 11.2538 29.3387 11.3366 29.4868 11.3761C30.746 11.7111 31.9551 12.2122 33.0821 12.8662C33.2149 12.9432 33.3677 12.9788 33.5209 12.9682C33.674 12.9576 33.8205 12.9014 33.9414 12.8069L36.5827 10.7448L40.5762 14.7387L38.5141 17.38C38.4196 17.5008 38.3636 17.6471 38.3532 17.8001C38.3427 17.953 38.3783 18.1056 38.4554 18.2381C39.1086 19.3654 39.6094 20.5744 39.9446 21.8334C39.9839 21.9818 40.0668 22.115 40.1826 22.2158C40.2984 22.3166 40.4418 22.3804 40.5942 22.3988L43.9188 22.8074H43.9189ZM44.1135 29.9811L41.2869 30.3286C40.9734 31.3719 40.5555 32.3809 40.0396 33.3403L41.7932 35.5857C42.0223 35.8799 42.1361 36.2476 42.1132 36.6199C42.0903 36.9921 41.9322 37.3431 41.6687 37.6069L37.6636 41.6119C37.3998 41.8755 37.0487 42.0335 36.6765 42.0563C36.3042 42.0791 35.9365 41.9651 35.6425 41.7357L33.397 39.9828C32.4376 40.4993 31.4284 40.9174 30.3848 41.2306L30.0373 44.0573C29.9919 44.4275 29.8127 44.7683 29.5335 45.0155C29.2542 45.2627 28.8942 45.3992 28.5213 45.3994H25.6892C25.5882 45.3995 25.4882 45.3797 25.3949 45.3412C25.3016 45.3026 25.2169 45.246 25.1455 45.1746C25.0741 45.1032 25.0175 45.0184 24.9789 44.9251C24.9403 44.8318 24.9206 44.7318 24.9207 44.6309V35.8872C24.9207 35.6834 25.0017 35.4879 25.1458 35.3438C25.2899 35.1997 25.4854 35.1187 25.6892 35.1187C28.2052 35.1187 30.6181 34.1192 32.3972 32.3401C34.1763 30.5611 35.1757 28.1481 35.1757 25.6321C35.1757 23.1161 34.1763 20.7032 32.3972 18.9241C30.6181 17.145 28.2052 16.1455 25.6892 16.1455C25.4854 16.1455 25.2899 16.0646 25.1458 15.9205C25.0017 15.7763 24.9207 15.5809 24.9207 15.3771V6.6331C24.9207 6.42929 25.0017 6.23382 25.1458 6.0897C25.2899 5.94558 25.4854 5.86462 25.6892 5.86462H28.5213C28.8943 5.86499 29.2542 6.00167 29.5334 6.24894C29.8126 6.4962 29.9918 6.83699 30.0373 7.20716L30.3848 10.0333C31.4285 10.3467 32.4377 10.7652 33.397 11.2823L35.6425 9.5276C35.9366 9.2984 36.3043 9.18451 36.6765 9.20734C37.0487 9.23017 37.3997 9.38815 37.6636 9.65159L41.6687 13.6566C41.9322 13.9204 42.0902 14.2714 42.1132 14.6436C42.1361 15.0158 42.0223 15.3836 41.7932 15.6778L40.0396 17.9241C40.5554 18.8835 40.9733 19.8925 41.2869 20.9357L44.1135 21.2831C44.4838 21.3289 44.8246 21.5084 45.0718 21.7878C45.3191 22.0672 45.4557 22.4273 45.4562 22.8004V28.4641C45.4558 28.8372 45.3192 29.1974 45.0719 29.4768C44.8246 29.7562 44.4838 29.9356 44.1135 29.9814V29.9811ZM53.7968 45.1003L51.1339 45.359L50.9145 48.6507C50.9029 48.8257 50.8318 48.9915 50.713 49.1206C50.5941 49.2496 50.4347 49.3341 50.2613 49.36L49.1554 49.5232L50.1223 51.0112C50.1854 51.1082 50.2257 51.2182 50.2404 51.333C50.255 51.4478 50.2435 51.5644 50.2068 51.6741C50.1701 51.7838 50.1091 51.8839 50.0283 51.9667C49.9475 52.0495 49.8491 52.1131 49.7404 52.1526L47.4672 52.9781L48.0552 57.0913C48.0705 57.2017 48.062 57.3142 48.0303 57.4212C47.6539 58.6756 46.8986 59.5554 45.7879 60.034C43.505 61.0177 39.7822 60.2297 34.4181 57.6254C33.2253 60.6793 32.4338 63.2408 32.0598 65.2487C32.0269 65.4251 31.9333 65.5844 31.7953 65.699C31.6573 65.8137 31.4835 65.8764 31.3041 65.8763H2.60641C2.44815 65.8763 2.29375 65.8274 2.16431 65.7364C2.03486 65.6453 1.93669 65.5165 1.8832 65.3676C1.82971 65.2186 1.82351 65.0568 1.86545 64.9042C1.90739 64.7516 1.99543 64.6156 2.11753 64.515C4.39442 62.6387 6.37994 57.5176 8.02053 49.293C3.18539 42.0151 0.557503 33.4944 0.453373 24.7573C0.464695 20.6209 1.51793 16.554 3.51585 12.932C5.51376 9.31009 8.39196 6.24984 11.8847 4.03383C20.2665 -1.28384 32.6018 -0.878208 41.8839 5.01915C49.6584 9.96026 53.5018 17.621 52.4299 26.0372C52.4224 26.0964 52.4079 26.1544 52.3865 26.21C50.4202 31.4466 50.7906 33.3336 51.2173 34.002C54.2192 37.1132 55.992 40.0052 56.2127 42.1486C56.2486 42.5011 56.2146 42.8573 56.1125 43.1967C56.0105 43.5361 55.8424 43.852 55.6179 44.1263C55.3935 44.4006 55.117 44.6278 54.8045 44.7949C54.492 44.9621 54.1495 45.0659 53.7968 45.1003Z" fill="url(#paint0_linear_706_5105)"/>
<defs>
<linearGradient id="paint0_linear_706_5105" x1="36.221" y1="20.6176" x2="71.1908" y2="55.2682" gradientUnits="userSpaceOnUse">
<stop stop-color="#1889D8"/>
<stop offset="1" stop-color="#01FFF0"/>
</linearGradient>
</defs>
</svg>
