<svg width="17" height="16" viewBox="0 0 17 16" fill="none" xmlns="http://www.w3.org/2000/svg">
<path d="M13.1667 2H3.83333C3.1 2 2.5 2.6 2.5 3.33333V12.6667C2.5 13.4 3.1 14 3.83333 14H13.1667C13.9 14 14.5 13.4 14.5 12.6667V3.33333C14.5 2.6 13.9 2 13.1667 2ZM13.1667 12.6667H3.83333V3.33333H13.1667V12.6667Z" fill="#FDFEFE"/>
<path d="M6.5 8H5.16667V11.3333H6.5V8Z" fill="#FDFEFE"/>
<path d="M11.8333 4.66667H10.5V11.3333H11.8333V4.66667Z" fill="#FDFEFE"/>
<path d="M9.16667 9.33333H7.83333V11.3333H9.16667V9.33333Z" fill="#FDFEFE"/>
<path d="M9.16667 6.66667H7.83333V8H9.16667V6.66667Z" fill="#FDFEFE"/>
</svg>
