<svg width="17" height="16" viewBox="0 0 17 16" fill="none" xmlns="http://www.w3.org/2000/svg">
<path d="M13.168 6.0013L14.0013 4.16797L15.8346 3.33464L14.0013 2.5013L13.168 0.667969L12.3346 2.5013L10.5013 3.33464L12.3346 4.16797L13.168 6.0013Z" fill="#FDFEFE"/>
<path d="M13.168 10.0013L12.3346 11.8346L10.5013 12.668L12.3346 13.5013L13.168 15.3346L14.0013 13.5013L15.8346 12.668L14.0013 11.8346L13.168 10.0013Z" fill="#FDFEFE"/>
<path d="M8.16797 6.33464L6.5013 2.66797L4.83464 6.33464L1.16797 8.0013L4.83464 9.66797L6.5013 13.3346L8.16797 9.66797L11.8346 8.0013L8.16797 6.33464ZM7.1613 8.6613L6.5013 10.1146L5.8413 8.6613L4.38797 8.0013L5.8413 7.3413L6.5013 5.88797L7.1613 7.3413L8.61463 8.0013L7.1613 8.6613Z" fill="#FDFEFE"/>
</svg>
