<svg width="16" height="9" viewBox="0 0 16 9" fill="none" xmlns="http://www.w3.org/2000/svg">
<path d="M15.131 1.80417C15.131 2.53865 14.5301 3.13959 13.7956 3.13959C13.6754 3.13959 13.5619 3.12624 13.4551 3.09285L11.078 5.46322C11.1114 5.57006 11.1248 5.69024 11.1248 5.81043C11.1248 6.54491 10.5238 7.14585 9.78935 7.14585C9.05487 7.14585 8.45393 6.54491 8.45393 5.81043C8.45393 5.69024 8.46728 5.57006 8.50067 5.46322L6.79801 3.76056C6.69118 3.79395 6.57099 3.8073 6.4508 3.8073C6.33061 3.8073 6.21042 3.79395 6.10359 3.76056L3.06551 6.80532C3.09889 6.91215 3.11225 7.02567 3.11225 7.14585C3.11225 7.88033 2.51131 8.48127 1.77683 8.48127C1.04235 8.48127 0.441406 7.88033 0.441406 7.14585C0.441406 6.41137 1.04235 5.81043 1.77683 5.81043C1.89701 5.81043 2.01053 5.82379 2.11736 5.85717L5.16212 2.81909C5.12873 2.71226 5.11538 2.59207 5.11538 2.47188C5.11538 1.7374 5.71632 1.13646 6.4508 1.13646C7.18528 1.13646 7.78622 1.7374 7.78622 2.47188C7.78622 2.59207 7.77287 2.71226 7.73948 2.81909L9.44214 4.52175C9.54897 4.48837 9.66916 4.47501 9.78935 4.47501C9.90954 4.47501 10.0297 4.48837 10.1366 4.52175L12.5069 2.1447C12.4735 2.03787 12.4602 1.92436 12.4602 1.80417C12.4602 1.06969 13.0611 0.46875 13.7956 0.46875C14.5301 0.46875 15.131 1.06969 15.131 1.80417Z" fill="#FDFEFE"/>
</svg>
