<svg width="12" height="12" viewBox="0 0 12 12" fill="none" xmlns="http://www.w3.org/2000/svg">
<path d="M6.10469 9.96719V10.9141C7.04688 10.8203 7.90469 10.4453 8.59844 9.87813L7.93281 9.20781C7.4125 9.61094 6.78906 9.88281 6.10469 9.96719Z" fill="black"/>
<path d="M1.89063 6.25C1.89063 4.35156 3.31094 2.77656 5.14844 2.53281V1.58594C2.79062 1.83438 0.953125 3.83125 0.953125 6.25C0.953125 8.66875 2.79062 10.6656 5.14844 10.9141V9.96719C3.31094 9.72344 1.89063 8.14844 1.89063 6.25Z" fill="black"/>
<path d="M9.35313 5.78125H10.3C10.2062 4.83906 9.83125 3.98125 9.26406 3.2875L8.59375 3.95781C8.99687 4.47344 9.26875 5.09688 9.35313 5.78125Z" fill="black"/>
<path d="M8.59844 2.62188C7.90469 2.05469 7.04219 1.67969 6.10469 1.58594V2.53281C6.78906 2.61719 7.4125 2.88906 7.93281 3.29219L8.59844 2.62188Z" fill="black"/>
<path d="M8.59375 8.54688L9.26406 9.2125C9.83125 8.51875 10.2062 7.66094 10.3 6.71875H9.35313C9.26875 7.40313 8.99687 8.02656 8.59375 8.54688Z" fill="black"/>
<path d="M7.50156 5.82813C7.50156 4.66094 6.61094 3.90625 5.62656 3.90625C4.64219 3.90625 3.75156 4.66094 3.75156 5.82813C3.75156 6.60625 4.375 7.52969 5.62656 8.59375C6.87813 7.52969 7.50156 6.60625 7.50156 5.82813ZM5.62656 6.25C5.35 6.25 5.125 6.025 5.125 5.74844C5.125 5.47188 5.35 5.24688 5.62656 5.24688C5.90313 5.24688 6.12812 5.47188 6.12812 5.74844C6.12812 6.025 5.90313 6.25 5.62656 6.25Z" fill="black"/>
</svg>
