<svg width="15" height="16" viewBox="0 0 15 16" fill="none" xmlns="http://www.w3.org/2000/svg">
<path d="M7.48248 1.94141C4.13703 1.94141 1.42188 4.65656 1.42188 8.00201C1.42188 11.3475 4.13703 14.0626 7.48248 14.0626C10.8279 14.0626 13.5431 11.3475 13.5431 8.00201C13.5431 4.65656 10.8279 1.94141 7.48248 1.94141ZM4.6643 11.9414C5.45824 11.3717 6.42794 11.0323 7.48248 11.0323C8.53703 11.0323 9.50672 11.3717 10.3007 11.9414C9.50672 12.5111 8.53703 12.8505 7.48248 12.8505C6.42794 12.8505 5.45824 12.5111 4.6643 11.9414ZM11.2037 11.105C10.1795 10.305 8.88854 9.82019 7.48248 9.82019C6.07642 9.82019 4.78551 10.305 3.76127 11.105C3.05824 10.2626 2.634 9.18383 2.634 8.00201C2.634 5.32322 4.80369 3.15353 7.48248 3.15353C10.1613 3.15353 12.331 5.32322 12.331 8.00201C12.331 9.18383 11.9067 10.2626 11.2037 11.105Z" fill="black"/>
<path d="M7.48248 4.36565C6.31278 4.36565 5.36127 5.31716 5.36127 6.48686C5.36127 7.65656 6.31278 8.60807 7.48248 8.60807C8.65218 8.60807 9.60369 7.65656 9.60369 6.48686C9.60369 5.31716 8.65218 4.36565 7.48248 4.36565ZM7.48248 7.39595C6.97945 7.39595 6.57339 6.98989 6.57339 6.48686C6.57339 5.98383 6.97945 5.57777 7.48248 5.57777C7.98551 5.57777 8.39157 5.98383 8.39157 6.48686C8.39157 6.98989 7.98551 7.39595 7.48248 7.39595Z" fill="black"/>
</svg>
