<svg width="22" height="22" viewBox="0 0 22 22" fill="none" xmlns="http://www.w3.org/2000/svg">
<path d="M17.293 5.55277C17.1112 5.01641 16.6021 4.63459 16.0021 4.63459H13.7294V2.81641H8.27486V4.63459H6.00213C5.40213 4.63459 4.90213 5.01641 4.71122 5.55277L2.82031 10.9982V18.271C2.82031 18.771 3.2294 19.18 3.7294 19.18H4.63849C5.13849 19.18 5.54759 18.771 5.54759 18.271V17.3619H16.4567V18.271C16.4567 18.771 16.8658 19.18 17.3658 19.18H18.2749C18.7749 19.18 19.1839 18.771 19.1839 18.271V10.9982L17.293 5.55277ZM6.32031 6.45277H15.6749L16.6203 9.18004H5.37486L6.32031 6.45277ZM17.3658 15.5437H4.63849V11.3073L4.74759 10.9982H17.2658L17.3658 11.3073V15.5437Z" fill="url(#paint0_linear_712_4)"/>
<path d="M6.91122 14.6346C7.66434 14.6346 8.27486 14.0241 8.27486 13.271C8.27486 12.5178 7.66434 11.9073 6.91122 11.9073C6.15811 11.9073 5.54759 12.5178 5.54759 13.271C5.54759 14.0241 6.15811 14.6346 6.91122 14.6346Z" fill="url(#paint1_linear_712_4)"/>
<path d="M15.093 14.6346C15.8462 14.6346 16.4567 14.0241 16.4567 13.271C16.4567 12.5178 15.8462 11.9073 15.093 11.9073C14.3399 11.9073 13.7294 12.5178 13.7294 13.271C13.7294 14.0241 14.3399 14.6346 15.093 14.6346Z" fill="url(#paint2_linear_712_4)"/>
<defs>
<linearGradient id="paint0_linear_712_4" x1="2.82031" y1="19.18" x2="21.2024" y2="16.4607" gradientUnits="userSpaceOnUse">
<stop stop-color="#A6CA3B"/>
<stop offset="1" stop-color="#4E93E4"/>
</linearGradient>
<linearGradient id="paint1_linear_712_4" x1="2.82031" y1="19.18" x2="21.2024" y2="16.4607" gradientUnits="userSpaceOnUse">
<stop stop-color="#A6CA3B"/>
<stop offset="1" stop-color="#4E93E4"/>
</linearGradient>
<linearGradient id="paint2_linear_712_4" x1="2.82031" y1="19.18" x2="21.2024" y2="16.4607" gradientUnits="userSpaceOnUse">
<stop stop-color="#A6CA3B"/>
<stop offset="1" stop-color="#4E93E4"/>
</linearGradient>
</defs>
</svg>
