<svg width="19" height="20" viewBox="0 0 19 20" fill="none" xmlns="http://www.w3.org/2000/svg">
<path d="M11.3643 3.18359H3.78859C2.95526 3.18359 2.28101 3.86541 2.28101 4.69875L2.27344 15.3048C2.27344 16.1381 2.94768 16.82 3.78101 16.82H14.3946C15.228 16.82 15.9098 16.1381 15.9098 15.3048V7.72905L11.3643 3.18359ZM3.78859 15.3048V4.69875H10.6068V8.48662H14.3946V15.3048H3.78859ZM6.81889 6.97147C6.81889 7.38814 6.47798 7.72905 6.06132 7.72905C5.64465 7.72905 5.30374 7.38814 5.30374 6.97147C5.30374 6.55481 5.64465 6.2139 6.06132 6.2139C6.47798 6.2139 6.81889 6.55481 6.81889 6.97147ZM6.81889 10.0018C6.81889 10.4184 6.47798 10.7594 6.06132 10.7594C5.64465 10.7594 5.30374 10.4184 5.30374 10.0018C5.30374 9.58511 5.64465 9.2442 6.06132 9.2442C6.47798 9.2442 6.81889 9.58511 6.81889 10.0018ZM6.81889 13.0321C6.81889 13.4487 6.47798 13.7897 6.06132 13.7897C5.64465 13.7897 5.30374 13.4487 5.30374 13.0321C5.30374 12.6154 5.64465 12.2745 6.06132 12.2745C6.47798 12.2745 6.81889 12.6154 6.81889 13.0321Z" fill="url(#paint0_linear_712_74)"/>
<defs>
<linearGradient id="paint0_linear_712_74" x1="2.27344" y1="16.82" x2="17.5919" y2="14.5538" gradientUnits="userSpaceOnUse">
<stop stop-color="#A6CA3B"/>
<stop offset="1" stop-color="#4E93E4"/>
</linearGradient>
</defs>
</svg>
