<svg width="19" height="20" viewBox="0 0 19 20" fill="none" xmlns="http://www.w3.org/2000/svg">
<path d="M10.9408 9.00734L9.38021 8.29522L10.9408 7.5831L11.6529 6.02249L12.3651 7.5831L13.9257 8.29522L12.3651 9.00734L11.6529 10.5679L10.9408 9.00734ZM3.3196 12.0831L4.03172 10.5225L5.59233 9.81037L4.03172 9.09825L3.3196 7.53764L2.60748 9.09825L1.04688 9.81037L2.60748 10.5225L3.3196 12.0831ZM6.72869 8.29522L7.55445 6.46946L9.38021 5.6437L7.55445 4.81795L6.72869 2.99219L5.90294 4.81795L4.07718 5.6437L5.90294 6.46946L6.72869 8.29522ZM3.69839 17.0073L8.24384 12.4543L11.2741 15.4846L17.7135 8.24219L16.6454 7.17401L11.2741 13.2119L8.24384 10.1816L2.56203 15.871L3.69839 17.0073Z" fill="url(#paint0_linear_712_12)"/>
<defs>
<linearGradient id="paint0_linear_712_12" x1="1.04688" y1="17.0073" x2="19.6048" y2="13.7426" gradientUnits="userSpaceOnUse">
<stop stop-color="#A6CA3B"/>
<stop offset="1" stop-color="#4E93E4"/>
</linearGradient>
</defs>
</svg>
