<svg width="20" height="20" viewBox="0 0 20 20" fill="none" xmlns="http://www.w3.org/2000/svg">
<path d="M9.95928 17.386C10.7926 17.386 11.4744 16.7042 11.4744 15.8709H8.44413C8.44413 16.7042 9.12595 17.386 9.95928 17.386ZM14.5047 12.8406V9.05268C14.5047 6.72692 13.2699 4.77995 11.0956 4.2648V3.74964C11.0956 3.12086 10.5881 2.61328 9.95928 2.61328C9.33049 2.61328 8.82292 3.12086 8.82292 3.74964V4.2648C6.65625 4.77995 5.41383 6.71934 5.41383 9.05268V12.8406L3.89867 14.3557V15.1133H16.0199V14.3557L14.5047 12.8406ZM12.9896 13.5981H6.92898V9.05268C6.92898 7.17389 8.07292 5.64358 9.95928 5.64358C11.8456 5.64358 12.9896 7.17389 12.9896 9.05268V13.5981ZM6.6108 3.81025L5.52746 2.72692C3.70928 4.11328 2.51231 6.24965 2.40625 8.67389H3.9214C4.03504 6.66631 5.06534 4.90874 6.6108 3.81025ZM15.9972 8.67389H17.5123C17.3987 6.24965 16.2017 4.11328 14.3911 2.72692L13.3153 3.81025C14.8456 4.90874 15.8835 6.66631 15.9972 8.67389Z" fill="url(#paint0_linear_712_85)"/>
<defs>
<linearGradient id="paint0_linear_712_85" x1="2.40625" y1="17.386" x2="19.3591" y2="14.8215" gradientUnits="userSpaceOnUse">
<stop stop-color="#A6CA3B"/>
<stop offset="1" stop-color="#4E93E4"/>
</linearGradient>
</defs>
</svg>
