<svg width="18" height="18" viewBox="0 0 18 18" fill="none" xmlns="http://www.w3.org/2000/svg">
<path d="M16.2839 12.071C15.1658 12.071 14.0839 11.8891 13.0749 11.5619C12.7567 11.4528 12.4021 11.5346 12.1567 11.78L10.7294 13.571C8.15668 12.3437 5.74759 10.0255 4.46577 7.36186L6.23849 5.85277C6.48395 5.59822 6.55668 5.24368 6.45668 4.9255C6.12031 3.91641 5.94759 2.83459 5.94759 1.71641C5.94759 1.2255 5.53849 0.816406 5.04759 0.816406H1.90213C1.41122 0.816406 0.820312 1.03459 0.820312 1.71641C0.820312 10.1619 7.84759 17.18 16.2839 17.18C16.9294 17.18 17.1839 16.6073 17.1839 16.1073V12.971C17.1839 12.48 16.7749 12.071 16.2839 12.071Z" fill="url(#paint0_linear_712_189)"/>
<defs>
<linearGradient id="paint0_linear_712_189" x1="0.820313" y1="17.18" x2="19.2024" y2="14.4607" gradientUnits="userSpaceOnUse">
<stop stop-color="#A6CA3B"/>
<stop offset="1" stop-color="#4E93E4"/>
</linearGradient>
</defs>
</svg>
