<svg width="22" height="22" viewBox="0 0 22 22" fill="none" xmlns="http://www.w3.org/2000/svg">
<path d="M14.8556 7.14652C13.792 6.08288 12.4011 5.54652 11.0011 5.54652V11.0011L7.14652 14.8556C9.27379 16.9829 12.7283 16.9829 14.8647 14.8556C16.992 12.7283 16.992 9.27379 14.8556 7.14652ZM11.0011 1.91016C5.98288 1.91016 1.91016 5.98288 1.91016 11.0011C1.91016 16.0192 5.98288 20.092 11.0011 20.092C16.0192 20.092 20.092 16.0192 20.092 11.0011C20.092 5.98288 16.0192 1.91016 11.0011 1.91016ZM11.0011 18.2738C6.98288 18.2738 3.72834 15.0192 3.72834 11.0011C3.72834 6.98288 6.98288 3.72834 11.0011 3.72834C15.0192 3.72834 18.2738 6.98288 18.2738 11.0011C18.2738 15.0192 15.0192 18.2738 11.0011 18.2738Z" fill="url(#paint0_linear_712_94)"/>
<defs>
<linearGradient id="paint0_linear_712_94" x1="1.91016" y1="20.092" x2="22.3347" y2="17.0705" gradientUnits="userSpaceOnUse">
<stop stop-color="#A6CA3B"/>
<stop offset="1" stop-color="#4E93E4"/>
</linearGradient>
</defs>
</svg>
