<svg width="19" height="20" viewBox="0 0 19 20" fill="none" xmlns="http://www.w3.org/2000/svg">
<path d="M7.77214 8.14358H9.89335L7.77214 10.7193V12.083H11.56V10.7193H9.4388L11.56 8.14358V6.77995H7.77214V8.14358ZM14.2115 12.8406V9.05268C14.2115 6.72692 12.9767 4.77995 10.8024 4.2648V3.74964C10.8024 3.12086 10.2949 2.61328 9.66607 2.61328C9.03729 2.61328 8.52971 3.12086 8.52971 3.74964V4.2648C6.36304 4.77995 5.12062 6.71934 5.12062 9.05268V12.8406L3.60547 14.3557V15.1133H15.7267V14.3557L14.2115 12.8406ZM12.6964 13.5981H6.63577V9.05268C6.63577 7.17389 7.77971 5.64358 9.66607 5.64358C11.5524 5.64358 12.6964 7.17389 12.6964 9.05268V13.5981ZM9.66607 17.386C10.4994 17.386 11.1812 16.7042 11.1812 15.8709H8.15092C8.15092 16.7042 8.83274 17.386 9.66607 17.386Z" fill="url(#paint0_linear_712_40)"/>
<defs>
<linearGradient id="paint0_linear_712_40" x1="3.60547" y1="17.386" x2="17.3178" y2="15.7216" gradientUnits="userSpaceOnUse">
<stop stop-color="#A6CA3B"/>
<stop offset="1" stop-color="#4E93E4"/>
</linearGradient>
</defs>
</svg>
